name ./resultDataOpenSim/trcMotMarkerGrf/sub06/grf-03-05.mot
datacolumns 19
datarows 27
range 1.55200000 1.65600000
endheader

                time	     ground_force_vx	     ground_force_vy	     ground_force_vz	     ground_force_px	     ground_force_py	     ground_force_pz	   l_ground_force_vx	   l_ground_force_vy	   l_ground_force_vz	   l_ground_force_px	   l_ground_force_py	   l_ground_force_pz	     ground_torque_x	     ground_torque_y	     ground_torque_z	   l_ground_torque_x	   l_ground_torque_y	   l_ground_torque_z	
          1.55200000	        160.05446272	        780.13246768	        -54.39267089	          0.88261030	          0.00000000	          0.18072752	          0.00000000	          0.00000000	          0.00000000	          0.00000000	          0.00000000	          0.00000000	          0.00000000	          5.47180462	          0.00000000	          0.00000000	          0.00000000	          0.00000000	
          1.55600000	        165.60322746	        783.24497228	        -54.04410819	          0.88294975	          0.00000000	          0.18062014	          0.00000000	          0.00000000	          0.00000000	          0.00000000	          0.00000000	          0.00000000	          0.00000000	          5.56345915	          0.00000000	          0.00000000	          0.00000000	          0.00000000	
          1.56000000	        170.61403731	        784.28723651	        -53.52138568	          0.88334451	          0.00000000	          0.18051859	          0.00000000	          0.00000000	          0.00000000	          0.00000000	          0.00000000	          0.00000000	          0.00000000	          5.65505317	          0.00000000	          0.00000000	          0.00000000	          0.00000000	
          1.56400000	        175.13045798	        783.27118173	        -52.96047609	          0.88379552	          0.00000000	          0.18042973	          0.00000000	          0.00000000	          0.00000000	          0.00000000	          0.00000000	          0.00000000	          0.00000000	          5.74634350	          0.00000000	          0.00000000	          0.00000000	          0.00000000	
          1.56800000	        179.34080869	        780.21178573	        -52.47331609	          0.88429442	          0.00000000	          0.18036082	          0.00000000	          0.00000000	          0.00000000	          0.00000000	          0.00000000	          0.00000000	          0.00000000	          5.82950490	          0.00000000	          0.00000000	          0.00000000	          0.00000000	
          1.57200000	        183.55925007	        775.12019659	        -52.12730947	          0.88480570	          0.00000000	          0.18031323	          0.00000000	          0.00000000	          0.00000000	          0.00000000	          0.00000000	          0.00000000	          0.00000000	          5.88841856	          0.00000000	          0.00000000	          0.00000000	          0.00000000	
          1.57600000	        188.09015243	        767.97923379	        -51.97278302	          0.88526709	          0.00000000	          0.18028437	          0.00000000	          0.00000000	          0.00000000	          0.00000000	          0.00000000	          0.00000000	          0.00000000	          5.90188586	          0.00000000	          0.00000000	          0.00000000	          0.00000000	
          1.58000000	        193.06063282	        758.73793905	        -52.07026465	          0.88562943	          0.00000000	          0.18028565	          0.00000000	          0.00000000	          0.00000000	          0.00000000	          0.00000000	          0.00000000	          0.00000000	          5.85072184	          0.00000000	          0.00000000	          0.00000000	          0.00000000	
          1.58400000	        198.35903762	        747.35934819	        -52.44510776	          0.88591264	          0.00000000	          0.18032617	          0.00000000	          0.00000000	          0.00000000	          0.00000000	          0.00000000	          0.00000000	          0.00000000	          5.72592697	          0.00000000	          0.00000000	          0.00000000	          0.00000000	
          1.58800000	        203.69452144	        733.86003817	        -53.02764299	          0.88616405	          0.00000000	          0.18038207	          0.00000000	          0.00000000	          0.00000000	          0.00000000	          0.00000000	          0.00000000	          0.00000000	          5.53359049	          0.00000000	          0.00000000	          0.00000000	          0.00000000	
          1.59200000	        208.67971510	        718.26829888	        -53.66188064	          0.88640184	          0.00000000	          0.18042526	          0.00000000	          0.00000000	          0.00000000	          0.00000000	          0.00000000	          0.00000000	          0.00000000	          5.29364194	          0.00000000	          0.00000000	          0.00000000	          0.00000000	
          1.59600000	        212.87793614	        700.54937571	        -54.14417054	          0.88663729	          0.00000000	          0.18044473	          0.00000000	          0.00000000	          0.00000000	          0.00000000	          0.00000000	          0.00000000	          0.00000000	          5.03288457	          0.00000000	          0.00000000	          0.00000000	          0.00000000	
          1.60000000	        215.86491559	        680.59181658	        -54.25910977	          0.88691861	          0.00000000	          0.18042600	          0.00000000	          0.00000000	          0.00000000	          0.00000000	          0.00000000	          0.00000000	          0.00000000	          4.77554515	          0.00000000	          0.00000000	          0.00000000	          0.00000000	
          1.60400000	        217.32573614	        658.23866881	        -53.81889674	          0.88726621	          0.00000000	          0.18033343	          0.00000000	          0.00000000	          0.00000000	          0.00000000	          0.00000000	          0.00000000	          0.00000000	          4.53547838	          0.00000000	          0.00000000	          0.00000000	          0.00000000	
          1.60800000	        217.10312759	        633.28984355	        -52.68542865	          0.88768605	          0.00000000	          0.18014903	          0.00000000	          0.00000000	          0.00000000	          0.00000000	          0.00000000	          0.00000000	          0.00000000	          4.31304373	          0.00000000	          0.00000000	          0.00000000	          0.00000000	
          1.61200000	        215.16434477	        605.49683387	        -50.77923286	          0.88816855	          0.00000000	          0.17987611	          0.00000000	          0.00000000	          0.00000000	          0.00000000	          0.00000000	          0.00000000	          0.00000000	          4.09737659	          0.00000000	          0.00000000	          0.00000000	          0.00000000	
          1.61600000	        211.54304017	        574.60947037	        -48.08502386	          0.88868786	          0.00000000	          0.17954764	          0.00000000	          0.00000000	          0.00000000	          0.00000000	          0.00000000	          0.00000000	          0.00000000	          3.87237539	          0.00000000	          0.00000000	          0.00000000	          0.00000000	
          1.62000000	        206.29518190	        540.47056644	        -44.63790938	          0.88921801	          0.00000000	          0.17922234	          0.00000000	          0.00000000	          0.00000000	          0.00000000	          0.00000000	          0.00000000	          0.00000000	          3.62324824	          0.00000000	          0.00000000	          0.00000000	          0.00000000	
          1.62400000	        199.47529447	        503.10663889	        -40.50220949	          0.88970780	          0.00000000	          0.17894078	          0.00000000	          0.00000000	          0.00000000	          0.00000000	          0.00000000	          0.00000000	          0.00000000	          3.34085398	          0.00000000	          0.00000000	          0.00000000	          0.00000000	
          1.62800000	        191.12345185	        462.75109563	        -35.77335404	          0.89006690	          0.00000000	          0.17869447	          0.00000000	          0.00000000	          0.00000000	          0.00000000	          0.00000000	          0.00000000	          0.00000000	          3.02310395	          0.00000000	          0.00000000	          0.00000000	          0.00000000	
          1.63200000	        181.25199954	        419.79510954	        -30.59617508	          0.89022418	          0.00000000	          0.17843567	          0.00000000	          0.00000000	          0.00000000	          0.00000000	          0.00000000	          0.00000000	          0.00000000	          2.67474526	          0.00000000	          0.00000000	          0.00000000	          0.00000000	
          1.63600000	        169.83868843	        374.74177470	        -25.17069080	          0.89013085	          0.00000000	          0.17811432	          0.00000000	          0.00000000	          0.00000000	          0.00000000	          0.00000000	          0.00000000	          0.00000000	          2.30736518	          0.00000000	          0.00000000	          0.00000000	          0.00000000	
          1.64000000	        156.83283322	        328.24510659	        -19.74067784	          0.88976126	          0.00000000	          0.17772751	          0.00000000	          0.00000000	          0.00000000	          0.00000000	          0.00000000	          0.00000000	          0.00000000	          1.94019292	          0.00000000	          0.00000000	          0.00000000	          0.00000000	
          1.64400000	        142.16537727	        281.23499775	        -14.57249273	          0.88913885	          0.00000000	          0.17731942	          0.00000000	          0.00000000	          0.00000000	          0.00000000	          0.00000000	          0.00000000	          0.00000000	          1.60035019	          0.00000000	          0.00000000	          0.00000000	          0.00000000	
          1.64800000	        125.77783950	        235.00621603	         -9.92526863	          0.88837714	          0.00000000	          0.17695636	          0.00000000	          0.00000000	          0.00000000	          0.00000000	          0.00000000	          0.00000000	          0.00000000	          1.32027003	          0.00000000	          0.00000000	          0.00000000	          0.00000000	
          1.65200000	        107.72648764	        191.12976364	         -6.01659363	          0.88780615	          0.00000000	          0.17673192	          0.00000000	          0.00000000	          0.00000000	          0.00000000	          0.00000000	          0.00000000	          0.00000000	          1.13107628	          0.00000000	          0.00000000	          0.00000000	          0.00000000	
          1.65600000	         88.35226309	        151.17914112	         -2.98886886	          0.88806273	          0.00000000	          0.17676741	          0.00000000	          0.00000000	          0.00000000	          0.00000000	          0.00000000	          0.00000000	          0.00000000	          1.05328847	          0.00000000	          0.00000000	          0.00000000	          0.00000000	
